<?xml version="1.0" encoding="UTF-8"?>
<svg xmlns="http://www.w3.org/2000/svg" xmlns:xlink="http://www.w3.org/1999/xlink" width="365pt" height="98pt" viewBox="0 0 365 98" version="1.1">
<defs>
<linearGradient id="linear0" gradientUnits="userSpaceOnUse" x1="36.5386" y1="-312.706" x2="73.1078" y2="-239.2322" gradientTransform="matrix(0.765199,0,0,0.765625,0,290.9375)">
<stop offset="0" style="stop-color:rgb(6.27451%,62.745098%,25.098039%);stop-opacity:1;"/>
<stop offset="1" style="stop-color:rgb(2.745098%,86.666667%,33.72549%);stop-opacity:1;"/>
</linearGradient>
<linearGradient id="linear1" gradientUnits="userSpaceOnUse" x1="48.8773" y1="-318.8473" x2="85.4467" y2="-245.3734" gradientTransform="matrix(0.765199,0,0,0.765625,0,290.9375)">
<stop offset="0" style="stop-color:rgb(6.27451%,62.745098%,25.098039%);stop-opacity:1;"/>
<stop offset="1" style="stop-color:rgb(2.745098%,86.666667%,33.72549%);stop-opacity:1;"/>
</linearGradient>
<linearGradient id="linear2" gradientUnits="userSpaceOnUse" x1="61.3854" y1="-325.0728" x2="97.9546" y2="-251.5988" gradientTransform="matrix(0.765199,0,0,0.765625,0,290.9375)">
<stop offset="0" style="stop-color:rgb(6.27451%,62.745098%,25.098039%);stop-opacity:1;"/>
<stop offset="1" style="stop-color:rgb(2.745098%,86.666667%,33.72549%);stop-opacity:1;"/>
</linearGradient>
<linearGradient id="linear3" gradientUnits="userSpaceOnUse" x1="84.1397" y1="-336.3978" x2="120.709" y2="-262.924" gradientTransform="matrix(0.765199,0,0,0.765625,0,290.9375)">
<stop offset="0" style="stop-color:rgb(6.27451%,62.745098%,25.098039%);stop-opacity:1;"/>
<stop offset="1" style="stop-color:rgb(2.745098%,86.666667%,33.72549%);stop-opacity:1;"/>
</linearGradient>
<linearGradient id="linear4" gradientUnits="userSpaceOnUse" x1="34.898" y1="-310.9443" x2="71.4671" y2="-237.4704" gradientTransform="matrix(0.765199,0,0,0.765625,0,290.9375)">
<stop offset="0" style="stop-color:rgb(6.27451%,62.745098%,25.098039%);stop-opacity:1;"/>
<stop offset="1" style="stop-color:rgb(2.745098%,86.666667%,33.72549%);stop-opacity:1;"/>
</linearGradient>
<linearGradient id="linear5" gradientUnits="userSpaceOnUse" x1="47.2559" y1="-317.0951" x2="83.8251" y2="-243.6212" gradientTransform="matrix(0.765199,0,0,0.765625,0,290.9375)">
<stop offset="0" style="stop-color:rgb(6.27451%,62.745098%,25.098039%);stop-opacity:1;"/>
<stop offset="1" style="stop-color:rgb(2.745098%,86.666667%,33.72549%);stop-opacity:1;"/>
</linearGradient>
<linearGradient id="linear6" gradientUnits="userSpaceOnUse" x1="59.764" y1="-323.3205" x2="96.3331" y2="-249.8466" gradientTransform="matrix(0.765199,0,0,0.765625,0,290.9375)">
<stop offset="0" style="stop-color:rgb(6.27451%,62.745098%,25.098039%);stop-opacity:1;"/>
<stop offset="1" style="stop-color:rgb(2.745098%,86.666667%,33.72549%);stop-opacity:1;"/>
</linearGradient>
<linearGradient id="linear7" gradientUnits="userSpaceOnUse" x1="82.4799" y1="-334.6266" x2="119.0492" y2="-261.1527" gradientTransform="matrix(0.765199,0,0,0.765625,0,290.9375)">
<stop offset="0" style="stop-color:rgb(6.27451%,62.745098%,25.098039%);stop-opacity:1;"/>
<stop offset="1" style="stop-color:rgb(2.745098%,86.666667%,33.72549%);stop-opacity:1;"/>
</linearGradient>
</defs>
<g id="surface1">
<path style=" stroke:none;fill-rule:nonzero;fill:rgb(100%,100%,100%);fill-opacity:1;" d="M 94.730469 50.300781 C 94.730469 25.777344 75.511719 5.894531 51.804688 5.894531 C 28.09375 5.894531 8.875 25.777344 8.875 50.300781 C 8.875 74.828125 28.09375 94.707031 51.804688 94.707031 C 75.511719 94.707031 94.730469 74.828125 94.730469 50.300781 Z M 94.730469 50.300781 "/>
<path style=" stroke:none;fill-rule:nonzero;fill:rgb(0%,0%,0%);fill-opacity:1;" d="M 125.109375 55.277344 L 115.925781 55.277344 L 115.925781 64.847656 L 109.730469 64.847656 L 109.730469 32.234375 C 114.855469 32.234375 119.984375 32.15625 125.109375 32.15625 C 141.027344 32.234375 141.101562 55.277344 125.109375 55.277344 Z M 115.925781 49.613281 L 125.109375 49.613281 C 132.992188 49.613281 132.914062 38.050781 125.109375 38.050781 L 115.925781 38.050781 Z M 115.925781 49.613281 "/>
<path style=" stroke:none;fill-rule:nonzero;fill:rgb(0%,0%,0%);fill-opacity:1;" d="M 145.082031 41.878906 L 145.539062 44.558594 C 147.300781 41.726562 149.671875 41.34375 152.046875 41.34375 C 154.417969 41.34375 156.710938 42.261719 157.9375 43.5625 L 155.335938 48.464844 C 154.1875 47.546875 153.117188 47.007812 151.203125 47.007812 C 148.296875 47.007812 145.464844 48.539062 145.464844 52.828125 L 145.464844 64.925781 L 139.800781 64.925781 L 139.800781 41.957031 Z M 145.082031 41.878906 "/>
<path style=" stroke:none;fill-rule:nonzero;fill:rgb(0%,0%,0%);fill-opacity:1;" d="M 182.882812 53.441406 C 182.882812 60.023438 178.367188 65.460938 170.867188 65.460938 C 163.445312 65.460938 158.933594 60.101562 158.933594 53.441406 C 158.933594 46.933594 163.523438 41.421875 170.792969 41.421875 C 178.136719 41.496094 182.882812 46.855469 182.882812 53.441406 Z M 164.671875 53.441406 C 164.671875 56.960938 166.8125 60.179688 170.945312 60.179688 C 175.078125 60.179688 177.21875 56.960938 177.21875 53.441406 C 177.21875 49.996094 174.773438 46.703125 170.945312 46.703125 C 166.738281 46.625 164.671875 49.996094 164.671875 53.441406 Z M 164.671875 53.441406 "/>
<path style=" stroke:none;fill-rule:nonzero;fill:rgb(0%,0%,0%);fill-opacity:1;" d="M 188.699219 64.847656 L 188.699219 47.164062 L 184.414062 47.164062 L 184.414062 42.1875 L 188.699219 42.1875 L 188.699219 40.65625 C 188.699219 34.453125 192.832031 31.695312 197.421875 31.695312 C 199.410156 31.695312 201.554688 32.386719 203.390625 33.535156 L 201.246094 37.820312 C 200.097656 36.980469 198.875 36.671875 197.726562 36.671875 C 195.738281 36.671875 194.285156 37.976562 194.285156 40.808594 L 194.285156 42.339844 L 201.019531 42.339844 L 201.019531 47.316406 L 194.285156 47.316406 L 194.285156 65 Z M 188.699219 64.847656 "/>
<path style=" stroke:none;fill-rule:nonzero;fill:rgb(0%,0%,0%);fill-opacity:1;" d="M 211.273438 35.449219 C 211.273438 39.890625 204.613281 39.890625 204.613281 35.449219 C 204.613281 31.007812 211.273438 31.007812 211.273438 35.449219 Z M 205.074219 41.804688 L 205.074219 64.925781 L 210.734375 64.925781 L 210.734375 41.804688 Z M 205.074219 41.804688 "/>
<path style=" stroke:none;fill-rule:nonzero;fill:rgb(0%,0%,0%);fill-opacity:1;" d="M 223.898438 35.449219 L 223.898438 41.957031 L 230.25 41.957031 L 230.25 46.78125 L 223.820312 46.78125 L 223.820312 56.734375 C 223.820312 58.953125 224.96875 59.949219 226.726562 59.949219 C 227.648438 59.949219 228.640625 59.640625 229.484375 59.257812 L 231.011719 64.082031 C 229.40625 64.773438 228.105469 65 226.347656 65 C 221.371094 65.230469 218.082031 62.320312 218.082031 56.578125 L 218.082031 46.625 L 213.796875 46.625 L 213.796875 41.804688 L 218.082031 41.804688 L 218.082031 35.90625 Z M 223.898438 35.449219 "/>
<path style=" stroke:none;fill-rule:nonzero;fill:rgb(0%,0%,0%);fill-opacity:1;" d="M 236.292969 64.847656 L 236.292969 47.164062 L 232.007812 47.164062 L 232.007812 42.1875 L 236.292969 42.1875 L 236.292969 40.65625 C 236.292969 34.453125 240.425781 31.695312 245.015625 31.695312 C 247.007812 31.695312 249.148438 32.386719 250.984375 33.535156 L 248.84375 37.820312 C 247.695312 36.980469 246.46875 36.671875 245.324219 36.671875 C 243.332031 36.671875 241.878906 37.976562 241.878906 40.808594 L 241.878906 42.339844 L 248.613281 42.339844 L 248.613281 47.316406 L 241.878906 47.316406 L 241.878906 65 Z M 236.292969 64.847656 "/>
<path style=" stroke:none;fill-rule:nonzero;fill:rgb(0%,0%,0%);fill-opacity:1;" d="M 276.390625 41.878906 L 262.386719 74.496094 L 256.113281 74.496094 L 260.398438 64.542969 L 251.214844 41.957031 L 257.796875 41.957031 L 261.316406 51.910156 L 263.535156 58.417969 L 265.90625 52.0625 L 270.117188 41.957031 Z M 276.390625 41.878906 "/>
<path style=" stroke:none;fill-rule:nonzero;fill:rgb(0%,0%,0%);fill-opacity:1;" d="M 282.816406 63.46875 C 282.816406 65.921875 279.144531 65.921875 279.144531 63.46875 C 279.144531 61.019531 282.816406 61.097656 282.816406 63.46875 Z M 282.816406 63.46875 "/>
<path style=" stroke:none;fill-rule:nonzero;fill:rgb(0%,0%,0%);fill-opacity:1;" d="M 323.066406 64.847656 L 323.066406 51.066406 C 323.066406 46.625 320.160156 43.488281 315.722656 43.488281 C 311.28125 43.488281 308.296875 46.703125 308.296875 51.144531 L 308.296875 64.847656 L 306.003906 64.847656 L 306.003906 51.21875 C 306.003906 46.78125 303.019531 43.5625 298.582031 43.5625 C 294.140625 43.5625 291.234375 46.78125 291.234375 51.21875 L 291.234375 64.925781 L 288.9375 64.925781 L 288.9375 41.878906 L 291.082031 41.878906 L 291.160156 45.707031 C 292.6875 42.722656 295.671875 41.421875 298.65625 41.421875 C 302.175781 41.421875 305.851562 42.953125 307.152344 47.085938 C 308.527344 43.335938 312.125 41.421875 315.644531 41.421875 C 321.308594 41.421875 325.285156 45.402344 325.285156 51.144531 L 325.285156 64.925781 Z M 323.066406 64.847656 "/>
<path style=" stroke:none;fill-rule:nonzero;fill:rgb(0%,0%,0%);fill-opacity:1;" d="M 330.414062 53.363281 C 330.414062 46.472656 335.617188 41.496094 342.121094 41.496094 C 348.625 41.496094 354.363281 45.476562 353.523438 54.4375 L 332.785156 54.4375 C 333.246094 59.871094 337.453125 62.933594 342.121094 62.933594 C 345.105469 62.933594 348.625 61.785156 350.460938 59.414062 L 352.066406 60.714844 C 349.847656 63.625 345.792969 65.15625 342.121094 65.15625 C 335.617188 65.230469 330.414062 60.636719 330.414062 53.363281 Z M 351.378906 52.445312 C 351.304688 46.78125 347.628906 43.640625 342.042969 43.640625 C 337.300781 43.640625 333.246094 46.855469 332.707031 52.445312 Z M 351.378906 52.445312 "/>
<path style=" stroke:none;fill-rule:nonzero;fill:rgb(2.745098%,86.666667%,33.72549%);fill-opacity:1;" d="M 59.914062 25.800781 L 60.066406 26.03125 L 60.222656 26.335938 C 60.222656 26.414062 60.296875 26.414062 60.296875 26.414062 L 60.375 26.492188 C 60.449219 26.566406 60.449219 26.566406 60.449219 26.644531 C 60.527344 26.71875 60.679688 26.875 60.757812 27.027344 C 60.832031 27.179688 60.988281 27.257812 61.140625 27.332031 C 61.292969 27.410156 61.367188 27.5625 61.523438 27.640625 C 62.515625 28.40625 63.96875 28.710938 65.195312 28.558594 L 65.425781 28.558594 L 65.652344 28.480469 C 65.808594 28.40625 65.960938 28.40625 66.113281 28.328125 C 66.265625 28.25 66.417969 28.25 66.574219 28.175781 L 66.800781 28.097656 L 66.878906 28.023438 L 66.953125 28.023438 C 66.953125 28.023438 66.878906 28.097656 66.878906 28.023438 L 67.109375 27.867188 C 67.183594 27.792969 67.335938 27.792969 67.335938 27.714844 L 67.492188 27.5625 C 67.566406 27.484375 67.566406 27.484375 67.644531 27.410156 C 67.875 27.179688 68.101562 26.949219 68.332031 26.71875 C 69.097656 25.800781 69.328125 24.5 69.25 23.429688 C 69.175781 22.816406 69.019531 22.355469 68.714844 21.898438 C 68.714844 21.972656 68.714844 21.898438 68.714844 21.898438 L 68.714844 21.820312 L 68.636719 21.742188 C 68.5625 21.667969 68.5625 21.589844 68.5625 21.515625 C 68.484375 21.4375 68.410156 21.285156 68.332031 21.207031 C 68.253906 21.132812 68.179688 21.054688 68.101562 20.902344 C 68.027344 20.824219 67.949219 20.75 67.796875 20.671875 C 67.03125 20.058594 66.265625 19.753906 65.5 19.753906 C 64.734375 19.675781 64.277344 19.828125 63.894531 19.984375 C 63.664062 20.058594 63.589844 20.136719 63.433594 20.136719 C 63.359375 20.210938 63.28125 20.210938 63.28125 20.210938 L 63.128906 19.984375 C 63.128906 19.984375 63.207031 19.984375 63.28125 19.90625 C 63.359375 19.828125 63.511719 19.753906 63.742188 19.675781 C 64.125 19.445312 64.660156 19.21875 65.5 19.140625 C 65.960938 19.140625 66.417969 19.140625 66.800781 19.21875 C 67.335938 19.292969 67.796875 19.523438 68.253906 19.828125 C 68.410156 19.90625 68.484375 19.984375 68.636719 20.136719 C 68.792969 20.289062 68.867188 20.367188 69.019531 20.441406 C 69.097656 20.59375 69.25 20.671875 69.402344 20.824219 C 69.480469 20.902344 69.480469 20.902344 69.554688 20.976562 L 69.710938 21.132812 C 69.710938 21.132812 69.710938 21.132812 69.710938 21.207031 C 70.09375 21.742188 70.398438 22.355469 70.628906 23.121094 C 71.085938 24.5 70.933594 26.261719 70.015625 27.792969 C 70.167969 27.5625 70.320312 27.410156 70.476562 27.179688 C 71.085938 26.335938 71.546875 25.417969 71.851562 24.347656 C 72.3125 23.046875 72.386719 21.667969 71.777344 20.367188 C 71.011719 18.679688 69.328125 17.53125 67.644531 17.074219 C 66.726562 16.84375 65.808594 16.691406 64.8125 16.84375 C 64.660156 16.84375 64.507812 16.84375 64.429688 16.921875 C 64.277344 16.921875 64.125 16.996094 64.046875 16.996094 C 63.742188 17.074219 63.511719 17.148438 63.207031 17.226562 C 63.128906 17.226562 63.050781 17.304688 62.976562 17.304688 L 62.746094 17.378906 C 62.59375 17.457031 62.441406 17.53125 62.363281 17.53125 L 62.210938 17.609375 C 62.210938 17.609375 62.441406 17.457031 62.289062 17.53125 L 62.210938 17.609375 L 61.90625 17.761719 L 61.597656 17.914062 L 61.523438 17.992188 L 61.445312 18.070312 C 61.367188 18.144531 61.292969 18.222656 61.140625 18.222656 C 61.0625 18.296875 60.910156 18.453125 60.832031 18.527344 C 60.757812 18.605469 60.605469 18.757812 60.527344 18.835938 C 60.449219 18.910156 60.296875 19.0625 60.222656 19.140625 C 60.144531 19.292969 60.066406 19.371094 59.914062 19.523438 L 59.683594 19.90625 C 59.609375 20.058594 59.53125 20.210938 59.457031 20.289062 C 59.378906 20.441406 59.304688 20.59375 59.226562 20.75 C 58.996094 21.359375 58.84375 21.898438 58.765625 22.585938 C 58.691406 23.273438 58.765625 23.886719 58.921875 24.5 C 58.921875 24.652344 58.996094 24.804688 59.074219 24.960938 C 59.148438 25.113281 59.148438 25.265625 59.226562 25.417969 L 59.914062 25.800781 C 59.914062 25.726562 60.066406 25.878906 59.914062 25.800781 Z M 59.914062 25.800781 "/>
<path style=" stroke:none;fill-rule:nonzero;fill:rgb(2.745098%,86.666667%,33.72549%);fill-opacity:1;" d="M 41.78125 66.148438 C 41.625 68.140625 41.625 70.667969 41.550781 72.121094 L 38.949219 72.121094 L 38.949219 91.109375 C 37.035156 90.421875 35.199219 89.730469 33.4375 88.890625 L 33.4375 77.175781 L 32.0625 77.175781 C 32.0625 76.640625 32.0625 75.492188 31.296875 73.5 C 30.609375 71.585938 31.679688 66.992188 32.902344 64.007812 C 33.363281 63.011719 33.820312 62.09375 34.28125 61.632812 C 35.503906 60.332031 39.332031 56.121094 41.550781 52.445312 C 41.78125 56.503906 41.855469 63.546875 41.78125 66.148438 Z M 41.78125 66.148438 "/>
<path style=" stroke:none;fill-rule:nonzero;fill:rgb(2.745098%,86.666667%,33.72549%);fill-opacity:1;" d="M 53.488281 59.257812 C 53.335938 61.171875 53.335938 63.929688 53.257812 65.765625 L 51.039062 65.765625 L 51.039062 93.328125 C 49.125 93.253906 47.289062 93.023438 45.53125 92.71875 L 45.53125 72.121094 L 44.074219 72.121094 C 44.074219 71.125 44.074219 69.289062 44.226562 66.53125 C 44.382812 62.246094 47.902344 56.578125 47.210938 50.148438 C 48.742188 50.53125 50.578125 50.683594 52.417969 50.378906 C 52.875 50.300781 53.257812 50.226562 53.640625 50.070312 C 53.640625 52.75 53.640625 56.886719 53.488281 59.257812 Z M 53.488281 59.257812 "/>
<path style=" stroke:none;fill-rule:nonzero;fill:rgb(2.745098%,86.666667%,33.72549%);fill-opacity:1;" d="M 64.8125 57.574219 L 63.207031 57.574219 L 63.207031 92.179688 C 61.445312 92.640625 59.53125 92.945312 57.695312 93.101562 L 57.695312 65.765625 L 55.707031 65.765625 C 55.707031 64.542969 55.859375 62.398438 56.394531 59.640625 C 57.464844 54.207031 60.832031 50.835938 64.507812 47.546875 C 64.429688 49.230469 64.429688 51.375 64.582031 52.523438 C 64.660156 53.441406 64.734375 55.585938 64.8125 57.574219 Z M 64.8125 57.574219 "/>
<path style=" stroke:none;fill-rule:nonzero;fill:rgb(2.745098%,86.666667%,33.72549%);fill-opacity:1;" d="M 98.023438 48.3125 C 98.023438 50.378906 97.867188 52.292969 97.640625 54.28125 C 95.496094 70.589844 84.554688 84.140625 69.785156 90.113281 L 69.785156 57.5 L 67.796875 57.5 C 67.875 56.65625 67.875 55.890625 67.949219 55.507812 C 68.410156 44.636719 74.683594 40.195312 75.371094 34.222656 C 75.753906 30.855469 75.449219 23.429688 75.449219 23.429688 C 75.449219 23.429688 76.445312 22.507812 78.355469 22.816406 C 80.347656 23.121094 80.882812 23.65625 81.722656 22.507812 C 81.722656 22.507812 81.722656 22.433594 81.800781 22.433594 C 82.71875 21.4375 83.332031 21.742188 83.101562 20.367188 C 82.792969 18.988281 82.640625 18.144531 81.417969 17.914062 C 80.421875 17.6875 75.449219 13.015625 75.066406 12.785156 C 74.761719 12.632812 74.53125 12.402344 74.222656 12.25 C 73.917969 12.097656 73.613281 11.945312 73.304688 11.714844 C 72.082031 11.023438 70.476562 10.566406 68.792969 10.335938 C 67.109375 10.105469 65.195312 10.183594 63.359375 10.71875 C 63.128906 10.796875 62.898438 10.871094 62.667969 10.949219 C 62.441406 11.023438 62.210938 11.101562 61.980469 11.253906 C 61.523438 11.40625 61.0625 11.714844 60.679688 11.945312 C 60.527344 12.019531 60.449219 12.019531 60.375 12.097656 L 60.066406 12.328125 C 59.839844 12.480469 59.609375 12.632812 59.378906 12.785156 L 59.226562 12.863281 C 59.226562 12.863281 59.148438 12.9375 59.074219 12.9375 L 59.304688 13.015625 L 58.84375 13.476562 L 58.765625 13.550781 L 58.691406 13.628906 L 58.539062 13.78125 C 58.308594 14.011719 58.078125 14.242188 57.847656 14.46875 C 57.621094 14.699219 57.464844 14.929688 57.3125 15.160156 C 57.160156 15.390625 57.007812 15.617188 56.777344 15.847656 C 56.625 16.078125 56.472656 16.308594 56.320312 16.539062 C 56.164062 16.765625 56.011719 16.996094 55.9375 17.304688 C 55.78125 17.53125 55.707031 17.839844 55.628906 18.070312 C 55.476562 18.296875 55.402344 18.605469 55.324219 18.910156 C 55.246094 19.21875 55.171875 19.445312 55.09375 19.753906 C 54.789062 20.75 54.710938 21.898438 54.789062 22.96875 C 54.863281 24.039062 55.09375 25.113281 55.554688 26.109375 C 55.628906 26.414062 55.78125 26.644531 55.859375 26.875 C 55.9375 27.101562 56.089844 27.410156 56.242188 27.640625 L 56.703125 28.328125 L 56.777344 28.40625 L 56.855469 28.480469 L 56.929688 28.632812 L 57.160156 28.863281 C 57.160156 28.941406 57.238281 28.941406 57.3125 29.015625 L 57.464844 29.171875 L 57.773438 29.476562 C 58.003906 29.707031 58.230469 29.859375 58.460938 30.011719 C 58.691406 30.164062 58.921875 30.320312 59.148438 30.472656 C 59.378906 30.625 59.609375 30.777344 59.839844 30.855469 C 61.0625 31.542969 62.441406 31.773438 63.664062 31.773438 C 59.304688 32.460938 56.546875 30.855469 55.019531 29.398438 C 50.65625 31.3125 44.992188 33.6875 42.925781 34.757812 C 40.019531 36.214844 36.578125 37.746094 35.964844 43.257812 C 33.363281 43.488281 30.683594 42.953125 30.53125 42.875 C 30.683594 43.105469 32.828125 46.550781 35.886719 46.320312 C 35.734375 53.132812 32.980469 57.957031 31.679688 59.03125 C 30.378906 60.101562 29.917969 60.101562 30.074219 62.933594 C 30.226562 65.691406 29.078125 71.355469 28.3125 72.273438 C 27.546875 73.195312 27.394531 73.5 27.777344 74.496094 C 28.082031 75.261719 28.007812 76.867188 27.929688 77.480469 L 27.011719 77.480469 L 27.011719 85.289062 C 15.609375 77.097656 8.1875 63.851562 8.1875 48.695312 C 8.1875 23.8125 28.3125 3.675781 53.179688 3.675781 C 78.050781 3.675781 98.023438 23.429688 98.023438 48.3125 Z M 98.023438 48.3125 "/>
<path style=" stroke:none;fill-rule:nonzero;fill:url(#linear0);" d="M 41.625 52.445312 C 41.78125 56.578125 41.933594 63.546875 41.703125 66.226562 C 41.550781 68.21875 41.550781 70.742188 41.472656 72.199219 L 38.871094 72.199219 L 38.871094 91.109375 C 36.960938 90.421875 35.121094 89.730469 33.363281 88.890625 L 33.363281 77.175781 L 31.984375 77.175781 C 31.984375 76.640625 31.984375 75.492188 31.21875 73.5 C 30.53125 71.585938 31.601562 66.992188 32.828125 64.007812 C 33.285156 63.011719 33.746094 62.09375 34.203125 61.632812 C 35.660156 60.253906 39.484375 56.121094 41.625 52.445312 Z M 41.625 52.445312 "/>
<path style=" stroke:none;fill-rule:nonzero;fill:url(#linear1);" d="M 53.640625 49.996094 C 53.640625 52.828125 53.640625 56.886719 53.488281 59.257812 C 53.335938 61.171875 53.335938 63.929688 53.257812 65.765625 L 51.039062 65.765625 L 51.039062 93.328125 C 49.125 93.253906 47.289062 93.023438 45.53125 92.71875 L 45.53125 72.121094 L 44.074219 72.121094 C 44.074219 71.125 44.074219 69.289062 44.226562 66.53125 C 44.382812 62.246094 47.902344 56.578125 47.210938 50.148438 C 48.742188 50.53125 50.578125 50.683594 52.417969 50.378906 C 52.875 50.226562 53.257812 50.070312 53.640625 49.996094 Z M 53.640625 49.996094 "/>
<path style=" stroke:none;fill-rule:nonzero;fill:url(#linear2);" d="M 64.507812 52.523438 C 64.660156 53.441406 64.8125 55.585938 64.8125 57.574219 L 63.207031 57.574219 L 63.207031 92.179688 C 61.445312 92.640625 59.53125 92.945312 57.695312 93.101562 L 57.695312 65.765625 L 55.707031 65.765625 C 55.707031 64.542969 55.859375 62.398438 56.394531 59.640625 C 57.464844 54.207031 60.832031 50.835938 64.507812 47.546875 C 64.351562 49.152344 64.277344 51.296875 64.507812 52.523438 Z M 64.507812 52.523438 "/>
<path style=" stroke:none;fill-rule:nonzero;fill:url(#linear3);" d="M 97.640625 54.28125 C 95.496094 70.589844 84.554688 84.140625 69.785156 90.113281 L 69.785156 57.5 L 67.796875 57.5 C 67.875 56.65625 67.875 55.890625 67.949219 55.507812 C 68.410156 44.636719 74.683594 40.195312 75.371094 34.222656 C 75.753906 30.855469 75.449219 23.429688 75.449219 23.429688 C 75.449219 23.429688 76.445312 22.507812 78.355469 22.816406 C 80.347656 23.121094 80.882812 23.65625 81.722656 22.507812 C 81.722656 22.507812 81.722656 22.433594 81.800781 22.433594 Z M 97.640625 54.28125 "/>
<path style=" stroke:none;fill-rule:nonzero;fill:rgb(100%,100%,100%);fill-opacity:1;" d="M 219.460938 64.773438 C 219.6875 65 219.917969 65.15625 220.222656 65.308594 C 221.679688 64.925781 223.132812 64.464844 224.664062 64.160156 C 222.824219 64.3125 221.140625 64.542969 219.460938 64.773438 Z M 219.460938 64.773438 "/>
<path style=" stroke:none;fill-rule:nonzero;fill:rgb(100%,100%,100%);fill-opacity:1;" d="M 237.59375 43.945312 C 237.59375 44.175781 237.519531 44.484375 237.519531 44.710938 C 238.4375 44.328125 239.203125 44.023438 240.121094 43.640625 C 239.277344 43.71875 238.4375 43.871094 237.59375 43.945312 Z M 237.59375 43.945312 "/>
<path style=" stroke:none;fill-rule:nonzero;fill:rgb(2.745098%,86.666667%,33.72549%);fill-opacity:1;" d="M 58.613281 27.101562 L 58.765625 27.332031 L 58.921875 27.640625 C 58.921875 27.714844 58.996094 27.714844 58.996094 27.714844 L 59.074219 27.792969 C 59.148438 27.867188 59.148438 27.867188 59.148438 27.945312 C 59.226562 28.023438 59.378906 28.175781 59.457031 28.328125 C 59.53125 28.480469 59.683594 28.558594 59.839844 28.632812 C 59.992188 28.710938 60.066406 28.863281 60.222656 28.941406 C 61.214844 29.707031 62.667969 30.011719 63.894531 29.859375 L 64.125 29.859375 L 64.351562 29.78125 C 64.507812 29.707031 64.660156 29.707031 64.8125 29.628906 C 64.964844 29.554688 65.117188 29.554688 65.273438 29.476562 L 65.5 29.398438 L 65.578125 29.324219 L 65.652344 29.324219 C 65.652344 29.324219 65.578125 29.398438 65.578125 29.324219 L 65.808594 29.171875 C 65.882812 29.09375 66.035156 29.09375 66.035156 29.015625 L 66.191406 28.863281 C 66.265625 28.789062 66.265625 28.789062 66.34375 28.710938 C 66.574219 28.480469 66.800781 28.25 67.03125 28.023438 C 67.796875 27.101562 68.027344 25.800781 67.949219 24.730469 C 67.875 24.117188 67.71875 23.65625 67.414062 23.199219 C 67.414062 23.273438 67.414062 23.199219 67.414062 23.199219 L 67.414062 23.121094 L 67.183594 22.96875 C 67.109375 22.890625 67.109375 22.816406 67.109375 22.738281 C 67.03125 22.664062 66.953125 22.507812 66.878906 22.433594 C 66.800781 22.355469 66.726562 22.28125 66.648438 22.125 C 66.574219 22.050781 66.496094 21.972656 66.34375 21.898438 C 65.578125 21.285156 64.8125 20.976562 64.046875 20.976562 C 63.28125 20.902344 62.824219 21.054688 62.441406 21.207031 C 62.210938 21.285156 62.132812 21.359375 61.980469 21.359375 C 61.90625 21.4375 61.828125 21.4375 61.828125 21.4375 L 61.675781 21.207031 C 61.675781 21.207031 61.75 21.207031 61.828125 21.132812 C 61.90625 21.054688 62.058594 20.976562 62.289062 20.902344 C 62.667969 20.671875 63.207031 20.441406 64.046875 20.367188 C 64.507812 20.367188 64.964844 20.367188 65.347656 20.441406 C 65.882812 20.519531 66.34375 20.75 66.800781 21.054688 C 66.953125 21.132812 67.03125 21.207031 67.183594 21.359375 C 67.335938 21.515625 67.414062 21.589844 67.566406 21.667969 C 67.644531 21.820312 67.796875 21.898438 67.949219 22.050781 C 68.027344 22.125 68.027344 22.125 68.101562 22.203125 L 68.253906 22.355469 C 68.253906 22.355469 68.253906 22.355469 68.253906 22.433594 C 68.636719 22.96875 68.945312 23.582031 69.175781 24.347656 C 69.632812 25.726562 69.480469 27.484375 68.5625 29.015625 C 68.714844 28.789062 68.867188 28.632812 69.019531 28.40625 C 69.632812 27.5625 70.09375 26.644531 70.398438 25.570312 C 70.859375 24.269531 70.933594 22.890625 70.320312 21.589844 C 69.554688 19.90625 67.875 18.757812 66.191406 18.296875 C 65.273438 18.070312 64.351562 17.914062 63.359375 18.070312 C 63.207031 18.070312 63.050781 18.070312 62.976562 18.144531 C 62.824219 18.144531 62.667969 18.222656 62.59375 18.222656 C 62.289062 18.296875 62.058594 18.375 61.75 18.453125 C 61.675781 18.453125 61.597656 18.527344 61.523438 18.527344 L 61.292969 18.605469 C 61.140625 18.679688 60.988281 18.757812 60.910156 18.757812 L 60.832031 18.835938 C 60.832031 18.835938 61.0625 18.679688 60.910156 18.757812 L 60.832031 18.835938 L 60.605469 19.140625 L 60.296875 19.292969 L 60.222656 19.371094 L 60.144531 19.445312 C 60.066406 19.523438 59.992188 19.601562 59.839844 19.601562 C 59.761719 19.675781 59.609375 19.828125 59.53125 19.90625 C 59.457031 19.984375 59.304688 20.136719 59.226562 20.210938 C 59.148438 20.289062 58.996094 20.441406 58.921875 20.519531 C 58.84375 20.671875 58.765625 20.75 58.613281 20.902344 L 58.382812 21.285156 C 58.308594 21.4375 58.230469 21.589844 58.15625 21.667969 C 58.078125 21.820312 58.003906 21.972656 57.925781 22.125 C 57.695312 22.738281 57.542969 23.273438 57.464844 23.964844 C 57.390625 24.652344 57.464844 25.265625 57.621094 25.878906 C 57.621094 26.03125 57.695312 26.183594 57.773438 26.335938 C 57.847656 26.492188 57.847656 26.644531 57.925781 26.796875 L 58.613281 27.101562 C 58.613281 27.101562 58.765625 27.179688 58.613281 27.101562 Z M 58.613281 27.101562 "/>
<path style=" stroke:none;fill-rule:nonzero;fill:rgb(2.745098%,86.666667%,33.72549%);fill-opacity:1;" d="M 40.480469 67.527344 C 40.324219 69.519531 40.324219 72.046875 40.25 73.5 L 37.648438 73.5 L 37.648438 92.488281 C 35.734375 91.796875 33.898438 91.109375 32.136719 90.265625 L 32.136719 78.554688 L 30.761719 78.554688 C 30.761719 78.015625 30.761719 76.867188 29.996094 74.878906 C 29.308594 72.964844 30.378906 68.371094 31.601562 65.382812 C 32.0625 64.390625 32.519531 63.46875 32.980469 63.011719 C 34.203125 61.710938 38.03125 57.5 40.25 53.824219 C 40.480469 57.957031 40.632812 64.847656 40.480469 67.527344 Z M 40.480469 67.527344 "/>
<path style=" stroke:none;fill-rule:nonzero;fill:rgb(2.745098%,86.666667%,33.72549%);fill-opacity:1;" d="M 52.261719 60.5625 C 52.109375 62.476562 52.109375 65.230469 52.035156 67.070312 L 49.816406 67.070312 L 49.816406 94.632812 C 47.902344 94.554688 46.066406 94.324219 44.304688 94.019531 L 44.304688 73.421875 L 42.851562 73.421875 C 42.851562 72.429688 42.851562 70.589844 43.003906 67.835938 C 43.15625 63.546875 46.675781 57.882812 45.988281 51.449219 C 47.519531 51.832031 49.355469 51.984375 51.191406 51.679688 C 51.652344 51.601562 52.035156 51.527344 52.417969 51.375 C 52.417969 54.207031 52.417969 58.265625 52.261719 60.5625 Z M 52.261719 60.5625 "/>
<path style=" stroke:none;fill-rule:nonzero;fill:rgb(2.745098%,86.666667%,33.72549%);fill-opacity:1;" d="M 63.589844 58.875 L 61.980469 58.875 L 61.980469 93.484375 C 60.222656 93.941406 58.308594 94.25 56.472656 94.402344 L 56.472656 67.144531 L 54.480469 67.144531 C 54.480469 65.921875 54.636719 63.777344 55.171875 61.019531 C 56.242188 55.585938 59.609375 52.214844 63.28125 48.921875 C 63.207031 50.609375 63.207031 52.75 63.359375 53.898438 C 63.433594 54.742188 63.511719 56.886719 63.589844 58.875 Z M 63.589844 58.875 "/>
<path style=" stroke:none;fill-rule:nonzero;fill:rgb(2.745098%,86.666667%,33.72549%);fill-opacity:1;" d="M 96.796875 49.6875 C 96.796875 51.757812 96.644531 53.671875 96.414062 55.660156 C 94.273438 71.96875 83.332031 85.519531 68.5625 91.492188 L 68.5625 58.875 L 66.574219 58.875 C 66.648438 58.035156 66.648438 57.269531 66.726562 56.886719 C 67.183594 46.015625 73.460938 41.574219 74.148438 35.601562 C 74.53125 32.234375 74.222656 24.804688 74.222656 24.804688 C 74.222656 24.804688 75.21875 23.886719 77.132812 24.195312 C 79.121094 24.5 79.65625 25.035156 80.5 23.886719 C 80.5 23.886719 80.5 23.8125 80.574219 23.8125 C 81.492188 22.816406 82.105469 23.121094 81.875 21.742188 C 81.570312 20.367188 81.417969 19.523438 80.191406 19.292969 C 79.199219 19.0625 74.222656 14.394531 73.839844 14.164062 C 73.535156 14.011719 73.304688 13.78125 73 13.628906 C 72.695312 13.476562 72.386719 13.320312 72.082031 13.09375 C 70.859375 12.402344 69.25 11.945312 67.566406 11.714844 C 65.882812 11.484375 63.96875 11.5625 62.132812 12.097656 C 61.90625 12.171875 61.675781 12.25 61.445312 12.328125 C 61.214844 12.402344 60.988281 12.480469 60.757812 12.632812 C 60.296875 12.785156 59.839844 13.09375 59.457031 13.320312 C 59.304688 13.398438 59.226562 13.398438 59.148438 13.476562 L 58.84375 13.703125 C 58.613281 13.859375 58.382812 14.011719 58.15625 14.164062 L 58.003906 14.242188 C 58.003906 14.242188 57.925781 14.316406 57.847656 14.316406 L 57.773438 14.394531 L 57.542969 14.625 L 57.3125 14.851562 L 57.238281 14.929688 L 57.007812 15.160156 C 56.777344 15.390625 56.546875 15.617188 56.320312 15.847656 C 56.089844 16.078125 55.9375 16.308594 55.78125 16.539062 C 55.628906 16.765625 55.476562 16.996094 55.246094 17.226562 C 55.09375 17.457031 54.941406 17.6875 54.789062 17.914062 C 54.636719 18.144531 54.480469 18.375 54.40625 18.679688 C 54.253906 18.910156 54.175781 19.21875 54.097656 19.445312 C 53.945312 19.675781 53.871094 19.984375 53.792969 20.289062 C 53.71875 20.59375 53.640625 20.824219 53.5625 21.132812 C 53.257812 22.125 53.179688 23.273438 53.257812 24.347656 C 53.335938 25.417969 53.5625 26.492188 54.023438 27.484375 C 54.097656 27.792969 54.253906 28.023438 54.328125 28.25 C 54.40625 28.480469 54.558594 28.789062 54.710938 29.015625 L 55.171875 29.707031 L 55.324219 29.859375 L 55.402344 30.011719 L 55.628906 30.242188 C 55.628906 30.320312 55.707031 30.320312 55.78125 30.394531 L 55.9375 30.546875 L 56.242188 30.855469 C 56.472656 31.085938 56.703125 31.238281 56.929688 31.390625 C 57.160156 31.542969 57.390625 31.695312 57.621094 31.851562 C 57.847656 32.003906 58.078125 32.15625 58.308594 32.234375 C 59.53125 32.921875 60.910156 33.152344 62.132812 33.152344 C 57.773438 33.839844 55.019531 32.234375 53.488281 30.777344 C 49.125 32.691406 43.464844 35.066406 41.398438 36.136719 C 38.488281 37.59375 35.046875 39.125 34.433594 44.636719 C 31.832031 44.867188 29.152344 44.328125 29 44.253906 C 29.152344 44.484375 31.296875 47.929688 34.359375 47.699219 C 34.203125 54.511719 31.449219 59.335938 30.148438 60.40625 C 28.847656 61.480469 28.390625 61.480469 28.542969 64.3125 C 28.695312 67.070312 27.546875 72.734375 26.78125 73.652344 C 26.015625 74.570312 25.863281 74.878906 26.246094 75.875 C 26.550781 76.640625 26.476562 78.246094 26.398438 78.859375 L 25.480469 78.859375 L 25.480469 86.667969 C 14.078125 78.476562 6.65625 65.230469 6.65625 50.070312 C 6.65625 25.1875 26.78125 5.054688 51.652344 5.054688 C 76.519531 5.054688 96.796875 24.804688 96.796875 49.6875 Z M 96.796875 49.6875 "/>
<path style=" stroke:none;fill-rule:nonzero;fill:url(#linear4);" d="M 40.324219 53.824219 C 40.480469 57.957031 40.632812 64.925781 40.402344 67.605469 C 40.25 69.59375 40.25 72.121094 40.171875 73.578125 L 37.570312 73.578125 L 37.570312 92.488281 C 35.660156 91.796875 33.820312 91.109375 32.0625 90.265625 L 32.0625 78.554688 L 30.683594 78.554688 C 30.683594 78.015625 30.683594 76.867188 29.917969 74.878906 C 29.230469 72.964844 30.300781 68.371094 31.527344 65.382812 C 31.984375 64.390625 32.445312 63.46875 32.902344 63.011719 C 34.359375 61.710938 38.183594 57.5 40.324219 53.824219 Z M 40.324219 53.824219 "/>
<path style=" stroke:none;fill-rule:nonzero;fill:url(#linear5);" d="M 52.417969 51.296875 C 52.417969 54.128906 52.417969 58.1875 52.261719 60.5625 C 52.109375 62.476562 52.109375 65.230469 52.035156 67.070312 L 49.816406 67.070312 L 49.816406 94.632812 C 47.902344 94.554688 46.066406 94.324219 44.304688 94.019531 L 44.304688 73.421875 L 42.851562 73.421875 C 42.851562 72.429688 42.851562 70.589844 43.003906 67.757812 C 43.15625 63.46875 46.675781 57.804688 45.988281 51.375 C 47.519531 51.757812 49.355469 51.910156 51.191406 51.601562 C 51.574219 51.527344 52.035156 51.449219 52.417969 51.296875 Z M 52.417969 51.296875 "/>
<path style=" stroke:none;fill-rule:nonzero;fill:url(#linear6);" d="M 63.28125 53.824219 C 63.433594 54.742188 63.589844 56.886719 63.589844 58.875 L 61.980469 58.875 L 61.980469 93.484375 C 60.222656 93.941406 58.308594 94.25 56.472656 94.402344 L 56.472656 67.144531 L 54.480469 67.144531 C 54.480469 65.921875 54.636719 63.777344 55.171875 61.019531 C 56.242188 55.585938 59.609375 52.214844 63.28125 48.921875 C 63.128906 50.53125 63.050781 52.75 63.28125 53.824219 Z M 63.28125 53.824219 "/>
<path style=" stroke:none;fill-rule:nonzero;fill:url(#linear7);" d="M 96.339844 55.660156 C 94.195312 71.96875 83.253906 85.519531 68.484375 91.492188 L 68.484375 58.875 L 66.496094 58.875 C 66.574219 58.035156 66.574219 57.269531 66.648438 56.886719 C 67.109375 46.015625 73.382812 41.574219 74.070312 35.601562 C 74.453125 32.234375 74.148438 24.804688 74.148438 24.804688 C 74.148438 24.804688 75.140625 23.886719 77.054688 24.195312 C 79.046875 24.5 79.582031 25.035156 80.421875 23.886719 C 80.421875 23.886719 80.421875 23.8125 80.5 23.8125 Z M 96.339844 55.660156 "/>
<path style=" stroke:none;fill-rule:nonzero;fill:rgb(0%,0%,0%);fill-opacity:1;" d="M 239.429688 42.570312 C 238.664062 42.570312 237.976562 42.722656 237.289062 43.105469 C 236.753906 43.335938 236.597656 44.175781 236.90625 44.710938 C 237.210938 45.324219 237.902344 45.402344 238.511719 45.09375 C 238.820312 44.941406 239.203125 44.867188 239.507812 44.867188 C 240.121094 44.867188 240.65625 44.328125 240.65625 43.71875 C 240.578125 43.105469 240.121094 42.570312 239.429688 42.570312 Z M 239.429688 42.570312 "/>
<path style=" stroke:none;fill-rule:nonzero;fill:rgb(0%,0%,0%);fill-opacity:1;" d="M 224.28125 62.398438 C 223.972656 62.398438 223.667969 62.398438 223.363281 62.398438 C 222.0625 62.476562 221.832031 64.234375 223.054688 64.617188 C 223.054688 64.617188 222.980469 64.617188 222.980469 64.617188 C 223.515625 64.925781 224.28125 64.695312 224.585938 64.234375 C 224.890625 63.699219 224.738281 63.011719 224.203125 62.628906 C 224.050781 62.550781 223.898438 62.476562 223.746094 62.398438 C 223.667969 63.164062 223.515625 63.929688 223.4375 64.617188 C 223.746094 64.617188 224.050781 64.695312 224.355469 64.617188 C 224.96875 64.542969 225.503906 64.160156 225.503906 63.46875 C 225.351562 62.933594 224.890625 62.320312 224.28125 62.398438 Z M 224.28125 62.398438 "/>
<path style=" stroke:none;fill-rule:nonzero;fill:rgb(0%,0%,0%);fill-opacity:1;" d="M 223.667969 62.476562 C 223.515625 62.476562 223.363281 62.398438 223.207031 62.398438 C 223.363281 62.476562 223.515625 62.628906 223.746094 62.703125 C 223.746094 62.78125 223.820312 62.78125 223.820312 62.859375 C 223.746094 62.703125 223.667969 62.628906 223.515625 62.550781 C 223.363281 62.476562 223.207031 62.398438 223.054688 62.320312 C 222.445312 62.167969 221.753906 62.476562 221.679688 63.085938 C 221.523438 63.699219 221.832031 64.390625 222.445312 64.464844 C 222.445312 64.464844 222.519531 64.464844 222.519531 64.464844 C 222.289062 64.3125 222.0625 64.082031 221.832031 63.929688 C 222.136719 64.390625 222.519531 64.542969 223.054688 64.617188 C 223.667969 64.773438 224.355469 64.464844 224.433594 63.851562 C 224.585938 63.316406 224.28125 62.628906 223.667969 62.476562 Z M 223.667969 62.476562 "/>
<path style=" stroke:none;fill-rule:nonzero;fill:rgb(0%,0%,0%);fill-opacity:1;" d="M 222.671875 64.542969 C 222.597656 64.542969 222.597656 64.542969 222.519531 64.542969 C 223.054688 64.773438 223.820312 64.3125 223.898438 63.777344 C 224.050781 63.164062 223.667969 62.550781 223.132812 62.398438 C 222.980469 62.320312 222.824219 62.320312 222.671875 62.320312 C 222.0625 62.246094 221.523438 62.859375 221.523438 63.46875 C 221.601562 64.082031 222.0625 64.464844 222.671875 64.542969 Z M 222.671875 64.542969 "/>
<path style=" stroke:none;fill-rule:nonzero;fill:rgb(0%,0%,0%);fill-opacity:1;" d="M 222.824219 64.617188 C 224.28125 64.617188 224.28125 62.320312 222.824219 62.320312 C 221.371094 62.320312 221.296875 64.617188 222.824219 64.617188 Z M 222.824219 64.617188 "/>
<path style=" stroke:none;fill-rule:nonzero;fill:rgb(0%,0%,0%);fill-opacity:1;" d="M 222.671875 64.542969 C 224.125 64.542969 224.125 62.246094 222.671875 62.246094 C 221.21875 62.246094 221.21875 64.542969 222.671875 64.542969 Z M 222.671875 64.542969 "/>
<path style=" stroke:none;fill-rule:nonzero;fill:rgb(0%,0%,0%);fill-opacity:1;" d="M 223.054688 64.695312 C 224.507812 64.695312 224.507812 62.398438 223.054688 62.398438 C 221.523438 62.398438 221.523438 64.695312 223.054688 64.695312 Z M 223.054688 64.695312 "/>
<path style=" stroke:none;fill-rule:nonzero;fill:rgb(0%,0%,0%);fill-opacity:1;" d="M 223.054688 64.695312 C 224.507812 64.695312 224.507812 62.398438 223.054688 62.398438 C 221.523438 62.398438 221.523438 64.695312 223.054688 64.695312 Z M 223.054688 64.695312 "/>
</g>
</svg>
